<svg version="1.0" xmlns="http://www.w3.org/2000/svg" width="48" height="48" viewBox="0 0 110 84"><g fill="#fff"><path d="M44.6 5.7c-1.4.4-1.7 1.1-1.2 3.4.5 2.4.1 3.1-2.4 4.4-3.4 1.7-3.3 2.1 1.7 10.3 4.2 7 7.3 15.3 8 21.4.7 5.6 1.8 5.4 2.8-.4 1.2-6.8 4.3-14.8 8.5-22 2.2-3.6 4-6.9 4-7.2 0-.3-1.4-1.3-3-2.1-2.6-1.4-2.9-1.8-1.9-3.6.8-1.6.8-2.4 0-3.2-1.2-1.2-13.3-1.9-16.5-1zm12.8 1.2c1.7.7 2.3 1.6 2 2.8-.4 1.6-1.4 1.8-7.4 1.5-6-.3-7-.6-7-2.2 0-2.8 7.3-4 12.4-2.1zm.2 6.4c.1.1-.9 4.2-2.2 9.2-1.2 4.9-2.3 10.3-2.3 11.8-.1 3.4-2.1 2.6-2.1-.7 0-1.3-1.1-6.5-2.4-11.4-2.1-8.2-2.1-9.2-.7-9.6 1.4-.4 9.2.2 9.7.7zm-11.2 6.2c3.4 11.6 3.1 12.5-1.6 4.5-3-5.1-4.1-7.9-3.5-8.8 1.9-2.5 3.6-1.1 5.1 4.3zm16.4-4.3c.7.9-.3 3.4-3.5 8.8-2.5 4.1-4.2 6.6-3.9 5.5.3-1.1 1.3-5 2.2-8.8 1.6-6.5 3-8.1 5.2-5.5zM14 21.3c0 7.4.3 13.7.6 14 .4.4 2.1-2.6 3.9-6.7 3.5-8.1 7.4-13.7 11.7-16.7 1.5-1.1 2.6-2.5 2.3-3-.4-.5-4.6-.9-9.6-.9H14v13.3zm11-6.6c-2.3 2.7-5.3 6.8-6.6 9.3l-2.3 4.5-.1-9.3V10h13.2L25 14.7zm47.2-5.8c-1 .6-.3 1.5 2.4 3.6C79.1 16 85.3 25.4 87 31.4c.7 2.5 1.7 4.6 2.1 4.6.5 0 .9-6.3.9-14V8h-8.2c-4.6 0-8.9.4-9.6.9zM89 19.5c0 5.2-.2 9.5-.5 9.5-.2 0-1.6-2.3-3-5.1-1.5-2.8-4.5-7.1-6.7-9.5L74.7 10H89v9.5zM25.5 31.2c-3.8 8.2-3.6 8.8 5.2 12.8 9.4 4.2 14 8.1 16.6 14 2.5 5.5 3.2 4 1.8-3.6-1.2-6.2-5.2-15.7-7.9-18.8C38.7 32.8 30 26 28.9 26c-.6 0-2.1 2.4-3.4 5.2zm9.8.9c5.3 4.6 9.2 10.6 11.3 17.6l1.4 4.7-3.7-3.6c-3.4-3.3-14.7-9.8-17-9.8-.5 0-1.4-.5-2-1.1-1.6-1.6 2.4-11.9 4.6-11.9.3 0 2.7 1.8 5.4 4.1zM69.4 30c-6.2 4.7-11 11.6-12.9 18.5-3.3 12.2-2.7 16.3 1.2 8.1 2.6-5.4 6.6-8.5 16.6-13.1l7.6-3.5-1.4-3.9C78.7 30.9 76.1 26 75.2 26c-.4 0-3 1.8-5.8 4zm8.6 3.5c1.3 3.1 2.1 5.7 1.9 5.9-.2.1-4 1.9-8.4 4-4.4 2-9.5 5.2-11.3 6.9l-3.3 3.2.6-3c1.4-6.3 6.2-14 11.4-18.3 2.8-2.3 5.6-4.2 6-4.2.5 0 1.9 2.5 3.1 5.5z"/><path d="M12.4 57C8.6 58.5 6 62.9 6 67.7c0 3.7.5 5 3.1 7.4 4.2 3.9 10.5 4.1 14.6.4l2.8-2.4-3-.1c-4.1 0-7.5-2.5-7.5-5.5 0-6.4 13.6-7.6 20.7-1.9 2 1.7 3.8 3.5 4.1 4.2.2.6-2 2.8-4.8 4.8-6.7 4.8-5.7 5.6 1.2 1 4.3-3 5.4-3.3 5.6-2 .2.9-.7 2.7-2 4.2-2.7 2.9-1.2 2.3 5.3-2.5 2.6-1.8 5.2-3.3 5.8-3.3.7 0 3.9 1.8 7.1 4 6.4 4.4 9.2 5.4 4.6 1.7-2-1.7-2.7-2.9-2.3-4.1.6-1.6 1-1.5 3.9.7 1.8 1.3 4.7 3.2 6.3 4.2l3 1.7-2.6-2.3c-1.4-1.3-4.1-3.6-6-5l-3.4-2.7 2-2.2c3.2-3.5 9-6 14-6 5.3 0 8 1.2 9.5 4 .9 1.6.6 2.5-1.4 4.5-1.4 1.4-3.7 2.5-5.1 2.5-1.4 0-2.5.4-2.5.9 0 1.7 5 4.1 8.7 4.1 10.4 0 14.3-12.4 6.1-19.3-6.2-5.2-18.2-2.8-27.4 5.6-2.8 2.6-5.5 4.7-5.9 4.7-.3 0-2.1-1.1-3.9-2.5-1.8-1.4-3.9-2.5-4.6-2.5-.7 0-2.8 1.1-4.6 2.5-1.8 1.4-3.6 2.5-3.9 2.5-.4 0-3.1-2.2-6.1-4.9-7.6-6.9-18.1-9.9-25-7.1zm14.5 1.9c.8.5-.3 1-3 1.4-9.7 1.3-12.6 8.1-5.5 12.7l3.8 2.5-3 .9C13.4 78 7 73.2 7 67.2c0-2.9 4.2-8.5 7-9.3 2.7-.8 10.7-.2 12.9 1zm67.5 2.2c2.4 2.7 2.7 3.8 2.3 7.1-.3 2.2-1.3 4.8-2.3 5.9-2 2.3-7.1 3.3-10.2 2.2-2.3-.9-2.2-1 1.5-3.4 7.1-4.5 4.2-10.9-5.7-12.8l-4.5-.8 3.5-1.1c5.9-1.9 12.1-.7 15.4 2.9zm-38.1 7.1c1.8 1.2 3.4 2.3 3.6 2.4.2.2.1 1-.3 1.9-.5 1.5-.9 1.4-3.5-.4-3.6-2.6-4.6-2.6-7.8-.1-2.6 2-4.3 1.9-4.3-.3 0-1.4 5.8-5.5 7.8-5.6.8-.1 2.8.9 4.5 2.1z"/><path d="M47.2 78.6c-3.7 3.6-2.9 3.7 2 .1l2.7-2 4.1 2.7c2.2 1.4 4 2.2 4 1.8 0-1-7.1-6.2-8.3-6.2-.4 0-2.4 1.6-4.5 3.6z"/></g></svg>